<svg xmlns="http://www.w3.org/2000/svg" xmlns:xlink="http://www.w3.org/1999/xlink" width="512" zoomAndPan="magnify" viewBox="0 0 384 383.999986" height="512" preserveAspectRatio="xMidYMid meet" version="1.0"><defs><g/><clipPath id="b2b306f20c"><path d="M 34.03125 21 L 272 21 L 272 373.503906 L 34.03125 373.503906 Z M 34.03125 21 " clip-rule="nonzero"/></clipPath><clipPath id="f3da8d2ddb"><path d="M 201.882812 22.25 L 349.492188 22.25 L 349.492188 309.4375 L 201.882812 309.4375 Z M 201.882812 22.25 " clip-rule="nonzero"/></clipPath></defs><g clip-path="url(#b2b306f20c)"><path fill="#00dc82" d="M 177.46875 42.03125 C 168.019531 53.144531 175.140625 75.199219 180.558594 86.730469 C 211.609375 152.878906 241.777344 217.074219 271.066406 279.308594 C 271.386719 280.007812 271.5625 280.746094 271.585938 281.523438 C 271.609375 282.300781 271.480469 283.054688 271.203125 283.789062 L 237.828125 369.015625 C 237.554688 369.71875 237.1875 370.371094 236.722656 370.964844 C 236.257812 371.558594 235.71875 372.074219 235.101562 372.507812 C 234.484375 372.945312 233.820312 373.28125 233.105469 373.519531 C 232.390625 373.757812 231.652344 373.890625 230.898438 373.914062 C 230.144531 373.933594 229.402344 373.847656 228.675781 373.652344 C 227.945312 373.453125 227.261719 373.15625 226.621094 372.757812 C 225.980469 372.359375 225.410156 371.878906 224.914062 371.3125 C 224.414062 370.746094 224.007812 370.121094 223.695312 369.433594 C 178.058594 270.453125 131.707031 170.9375 84.632812 70.894531 C 74.492188 49.324219 59.628906 33.523438 35.804688 33.835938 C 34.625 33.835938 34.03125 33.246094 34.03125 32.066406 L 34.207031 23.210938 C 34.207031 23.042969 34.238281 22.886719 34.300781 22.734375 C 34.363281 22.585938 34.449219 22.453125 34.566406 22.335938 C 34.679688 22.222656 34.8125 22.136719 34.960938 22.074219 C 35.109375 22.015625 35.261719 21.988281 35.421875 21.992188 L 197.542969 22.203125 C 197.804688 22.203125 198.058594 22.25 198.304688 22.351562 C 198.550781 22.453125 198.765625 22.59375 198.953125 22.78125 C 199.144531 22.964844 199.289062 23.179688 199.394531 23.421875 C 199.496094 23.664062 199.550781 23.917969 199.554688 24.179688 L 199.695312 31.996094 C 199.71875 33.246094 199.105469 33.847656 197.855469 33.800781 C 189.195312 33.5 182.398438 36.246094 177.46875 42.03125 Z M 177.46875 42.03125 " fill-opacity="1" fill-rule="nonzero"/></g><g clip-path="url(#f3da8d2ddb)"><path fill="#0ed283" d="M 312.398438 130.574219 L 312.398438 72.84375 L 263.226562 130.574219 L 263.226562 168.351562 L 275.914062 168.351562 C 289.574219 168.351562 300.683594 179.46875 300.683594 193.125 L 300.683594 235.894531 C 300.683594 249.558594 289.574219 260.671875 275.914062 260.671875 C 262.261719 260.671875 251.152344 249.566406 251.140625 235.90625 L 251.113281 205.871094 L 201.992188 205.90625 L 202.011719 235.949219 C 202.046875 276.664062 235.195312 309.792969 275.914062 309.792969 C 316.660156 309.792969 349.808594 276.640625 349.808594 235.894531 L 349.808594 193.125 C 349.808594 166.816406 339.117188 141.515625 312.398438 130.574219 Z M 207.328125 22.238281 L 207.328125 71.359375 L 349.808594 71.359375 L 349.808594 22.238281 Z M 207.328125 22.238281 " fill-opacity="1" fill-rule="nonzero"/></g><g fill="#ffffff" fill-opacity="1"><g transform="translate(231.35381, 63.219164)"><g><path d="M 4.703125 -26.78125 L 4.703125 -36.765625 L 13.9375 -36.765625 L 13.9375 -26.78125 L 19.578125 -26.78125 L 19.578125 -19.734375 L 13.9375 -19.734375 L 13.9375 -11.234375 C 13.9375 -8.753906 14.632812 -7.515625 16.03125 -7.515625 C 16.375 -7.515625 16.738281 -7.582031 17.125 -7.71875 C 17.507812 -7.863281 17.804688 -8.003906 18.015625 -8.140625 L 18.328125 -8.359375 L 20.625 -0.890625 C 18.644531 0.222656 16.382812 0.78125 13.84375 0.78125 C 12.101562 0.78125 10.601562 0.476562 9.34375 -0.125 C 8.09375 -0.738281 7.144531 -1.554688 6.5 -2.578125 C 5.851562 -3.609375 5.390625 -4.6875 5.109375 -5.8125 C 4.835938 -6.945312 4.703125 -8.160156 4.703125 -9.453125 L 4.703125 -19.734375 L 0.828125 -19.734375 L 0.828125 -26.78125 Z M 4.703125 -26.78125 "/></g></g></g><g fill="#ffffff" fill-opacity="1"><g transform="translate(248.793941, 63.219164)"><g><path d="M 3.140625 0 L 3.140625 -26.78125 L 12.375 -26.78125 L 12.375 -22.921875 L 12.484375 -22.921875 C 12.546875 -23.066406 12.65625 -23.242188 12.8125 -23.453125 C 12.96875 -23.660156 13.304688 -24.023438 13.828125 -24.546875 C 14.359375 -25.066406 14.914062 -25.535156 15.5 -25.953125 C 16.09375 -26.367188 16.859375 -26.742188 17.796875 -27.078125 C 18.742188 -27.410156 19.703125 -27.578125 20.671875 -27.578125 C 21.679688 -27.578125 22.671875 -27.4375 23.640625 -27.15625 C 24.617188 -26.875 25.335938 -26.59375 25.796875 -26.3125 L 26.53125 -25.90625 L 22.65625 -18.0625 C 21.507812 -19.039062 19.910156 -19.53125 17.859375 -19.53125 C 16.742188 -19.53125 15.785156 -19.285156 14.984375 -18.796875 C 14.179688 -18.304688 13.613281 -17.710938 13.28125 -17.015625 C 12.957031 -16.328125 12.722656 -15.738281 12.578125 -15.25 C 12.441406 -14.757812 12.375 -14.375 12.375 -14.09375 L 12.375 0 Z M 3.140625 0 "/></g></g></g><g fill="#ffffff" fill-opacity="1"><g transform="translate(271.612318, 63.219164)"><g><path d="M 30.234375 -12.109375 L 10.8125 -12.109375 C 10.8125 -10.234375 11.421875 -8.84375 12.640625 -7.9375 C 13.859375 -7.03125 15.179688 -6.578125 16.609375 -6.578125 C 18.097656 -6.578125 19.28125 -6.773438 20.15625 -7.171875 C 21.03125 -7.578125 22.023438 -8.375 23.140625 -9.5625 L 29.8125 -6.21875 C 27.03125 -1.550781 22.398438 0.78125 15.921875 0.78125 C 11.890625 0.78125 8.425781 -0.597656 5.53125 -3.359375 C 2.644531 -6.128906 1.203125 -9.460938 1.203125 -13.359375 C 1.203125 -17.265625 2.644531 -20.609375 5.53125 -23.390625 C 8.425781 -26.179688 11.890625 -27.578125 15.921875 -27.578125 C 20.171875 -27.578125 23.625 -26.347656 26.28125 -23.890625 C 28.945312 -21.429688 30.28125 -17.925781 30.28125 -13.375 C 30.28125 -12.738281 30.265625 -12.316406 30.234375 -12.109375 Z M 11.078125 -17.234375 L 21.25 -17.234375 C 21.039062 -18.628906 20.492188 -19.695312 19.609375 -20.4375 C 18.722656 -21.1875 17.582031 -21.5625 16.1875 -21.5625 C 14.65625 -21.5625 13.4375 -21.160156 12.53125 -20.359375 C 11.625 -19.566406 11.140625 -18.523438 11.078125 -17.234375 Z M 11.078125 -17.234375 "/></g></g></g><g fill="#ffffff" fill-opacity="1"><g transform="translate(299.91338, 63.219164)"><g><path d="M 14.78125 -27.578125 C 16.3125 -27.578125 17.820312 -27.398438 19.3125 -27.046875 C 20.8125 -26.703125 21.925781 -26.351562 22.65625 -26 L 23.765625 -25.484375 L 20.734375 -19.421875 C 18.640625 -20.535156 16.65625 -21.09375 14.78125 -21.09375 C 13.738281 -21.09375 13 -20.976562 12.5625 -20.75 C 12.125 -20.53125 11.90625 -20.109375 11.90625 -19.484375 C 11.90625 -19.335938 11.921875 -19.191406 11.953125 -19.046875 C 11.992188 -18.910156 12.066406 -18.78125 12.171875 -18.65625 C 12.273438 -18.539062 12.367188 -18.4375 12.453125 -18.34375 C 12.535156 -18.257812 12.679688 -18.164062 12.890625 -18.0625 C 13.109375 -17.957031 13.273438 -17.878906 13.390625 -17.828125 C 13.515625 -17.773438 13.710938 -17.695312 13.984375 -17.59375 C 14.265625 -17.488281 14.472656 -17.410156 14.609375 -17.359375 C 14.753906 -17.304688 14.992188 -17.226562 15.328125 -17.125 C 15.660156 -17.019531 15.910156 -16.953125 16.078125 -16.921875 C 17.160156 -16.609375 18.101562 -16.257812 18.90625 -15.875 C 19.707031 -15.488281 20.550781 -14.960938 21.4375 -14.296875 C 22.320312 -13.640625 23.007812 -12.804688 23.5 -11.796875 C 23.988281 -10.785156 24.234375 -9.640625 24.234375 -8.359375 C 24.234375 -2.265625 20.003906 0.78125 11.546875 0.78125 C 9.628906 0.78125 7.804688 0.488281 6.078125 -0.09375 C 4.359375 -0.6875 3.113281 -1.28125 2.34375 -1.875 L 1.203125 -2.8125 L 4.953125 -9.140625 C 5.234375 -8.890625 5.597656 -8.597656 6.046875 -8.265625 C 6.503906 -7.941406 7.320312 -7.492188 8.5 -6.921875 C 9.6875 -6.347656 10.71875 -6.0625 11.59375 -6.0625 C 13.507812 -6.0625 14.46875 -6.703125 14.46875 -7.984375 C 14.46875 -8.578125 14.222656 -9.039062 13.734375 -9.375 C 13.242188 -9.707031 12.414062 -10.082031 11.25 -10.5 C 10.082031 -10.914062 9.171875 -11.296875 8.515625 -11.640625 C 6.835938 -12.515625 5.507812 -13.5 4.53125 -14.59375 C 3.5625 -15.6875 3.078125 -17.140625 3.078125 -18.953125 C 3.078125 -21.671875 4.128906 -23.785156 6.234375 -25.296875 C 8.347656 -26.816406 11.195312 -27.578125 14.78125 -27.578125 Z M 14.78125 -27.578125 "/></g></g></g></svg>